custom-analysis
version=1
nRows=4
nColumns=98
inDegrees=no

This file contains tibia displacement and acting force.

Units are S.I. units (seconds, meters, Newtons, ...)
Angles are in degrees.

endheader
time	APT	SIT	knee_angle	aACL_R_force	pACL_R_force	aPCL_R_force	pPCL_R_force	aMCL_R_force	mMCL_R_force	pMCL_R_force	aLCL_R_force	mLCL_R_force	pLCL_R_force	aPCL_L_force	pPCL_L_force	aMCL_L_force	aLCL_L_force	aACL_R_length	pACL_R_length	aPCL_R_length	pPCL_R_length	aMCL_R_length	mMCL_R_length	pMCL_R_length	aLCL_R_length	mLCL_R_length	pLCL_R_length	aPCL_L_length	pPCL_L_length	aMCL_L_length	aLCL_L_length	aACL_R_strain	pACL_R_strain	aPCL_R_strain	pPCL_R_strain	aMCL_R_strain	mMCL_R_strain	pMCL_R_strain	aLCL_R_strain	mLCL_R_strain	pLCL_R_strain	aPCL_L_strain	pPCL_L_strain	aMCL_L_strain	aLCL_L_strain	femur_lat_meniscii_r.femur_lat_r.force.X	femur_lat_meniscii_r.femur_lat_r.force.Y	femur_lat_meniscii_r.femur_lat_r.force.Z	femur_lat_meniscii_r.femur_lat_r.torque.X	femur_lat_meniscii_r.femur_lat_r.torque.Y	femur_lat_meniscii_r.femur_lat_r.torque.Z	femur_lat_meniscii_r.meniscus_lat_r.force.X	femur_lat_meniscii_r.meniscus_lat_r.force.Y	femur_lat_meniscii_r.meniscus_lat_r.force.Z	femur_lat_meniscii_r.meniscus_lat_r.torque.X	femur_lat_meniscii_r.meniscus_lat_r.torque.Y	femur_lat_meniscii_r.meniscus_lat_r.torque.Z	femur_med_meniscii_r.femur_med_r.force.X	femur_med_meniscii_r.femur_med_r.force.Y	femur_med_meniscii_r.femur_med_r.force.Z	femur_med_meniscii_r.femur_med_r.torque.X	femur_med_meniscii_r.femur_med_r.torque.Y	femur_med_meniscii_r.femur_med_r.torque.Z	femur_med_meniscii_r.meniscus_med_r.force.X	femur_med_meniscii_r.meniscus_med_r.force.Y	femur_med_meniscii_r.meniscus_med_r.force.Z	femur_med_meniscii_r.meniscus_med_r.torque.X	femur_med_meniscii_r.meniscus_med_r.torque.Y	femur_med_meniscii_r.meniscus_med_r.torque.Z	femur_med_tibia_r.tibia_upper_r.force.X	femur_med_tibia_r.tibia_upper_r.force.Y	femur_med_tibia_r.tibia_upper_r.force.Z	femur_med_tibia_r.tibia_upper_r.torque.X	femur_med_tibia_r.tibia_upper_r.torque.Y	femur_med_tibia_r.tibia_upper_r.torque.Z	femur_med_tibia_r.femur_med_r.force.X	femur_med_tibia_r.femur_med_r.force.Y	femur_med_tibia_r.femur_med_r.force.Z	femur_med_tibia_r.femur_med_r.torque.X	femur_med_tibia_r.femur_med_r.torque.Y	femur_med_tibia_r.femur_med_r.torque.Z	femur_lat_tibia_r.tibia_upper_r.force.X	femur_lat_tibia_r.tibia_upper_r.force.Y	femur_lat_tibia_r.tibia_upper_r.force.Z	femur_lat_tibia_r.tibia_upper_r.torque.X	femur_lat_tibia_r.tibia_upper_r.torque.Y	femur_lat_tibia_r.tibia_upper_r.torque.Z	femur_lat_tibia_r.femur_lat_r.force.X	femur_lat_tibia_r.femur_lat_r.force.Y	femur_lat_tibia_r.femur_lat_r.force.Z	femur_lat_tibia_r.femur_lat_r.torque.X	femur_lat_tibia_r.femur_lat_r.torque.Y	femur_lat_tibia_r.femur_lat_r.torque.Z	femur_lat_meniscii_force_r	femur_med_meniscii_force_r	femur_lat_tibia_force_r	femur_med_tibia_force_r
      0.47370468	      0.00517055	      0.00009432	     80.00011296	     77.91513556	     27.35614157	    599.91249441	    244.78398186	     13.98349128	      1.71293945	      0.00000000	      0.00000000	      0.00000000	      0.00000000	      0.00000000	      0.00000000	      0.00000001	      0.00000000	      0.03416746	      0.02657272	      0.03519311	      0.03179212	      0.06278198	      0.06076160	      0.05697516	      0.04904761	      0.04348525	      0.03802123	      0.01525851	      0.01651186	      0.06550154	      0.04489616	      0.10198065	      0.06041875	      0.13178242	      0.06371548	      0.04589567	      0.01619069	     -0.02984667	     -0.12379312	     -0.22787051	     -0.27360969	      0.00000079	     -0.32847694	      0.00000060	     -0.00000086	    230.00712556	     61.43548115	     47.42815419	    -20.76988107	      5.75533415	     93.64950260	   -230.00712556	    -61.43548115	    -47.42815419	      2.19501171	     -8.30815039	     -0.26223339	    106.87970251	    -35.21621262	    -14.85387962	      5.32105455	     -2.05422472	     43.18515698	   -106.87970251	     35.21621262	     14.85387962	      0.40995721	      1.88616030	     -1.54974319	   -467.58159426	    -47.91021513	     63.96959394	     -1.02140495	      7.45768041	     -1.75737734	    467.58159426	     47.91021513	    -63.96959394	     26.78181941	     -8.22091319	    189.47982910	    -38.86475125	    -15.74832400	    -11.82959591	      0.56370290	     -1.49622333	      0.13966838	     38.86475125	     15.74832400	     11.82959591	     -5.19437414	      0.95956582	     15.78829258	    242.74889488	    113.50810623	     43.57083816	    474.36277779
      0.47700616	      0.00516935	      0.00009589	     80.00011296	     77.61057879	     27.05239221	    599.49177551	    243.96919592	     13.43956391	      1.18132023	      0.00000000	      0.00000000	      0.00000000	      0.00000000	      0.00000000	      0.00000000	      0.00000001	      0.00000000	      0.03416546	      0.02657085	      0.03519225	      0.03179122	      0.06277943	      0.06075912	      0.05697281	      0.04904751	      0.04348520	      0.03802129	      0.01525851	      0.01651186	      0.06550154	      0.04489616	      0.10191625	      0.06034450	      0.13175464	      0.06368540	      0.04585316	      0.01614931	     -0.02988680	     -0.12379484	     -0.22787145	     -0.27360855	      0.00000079	     -0.32847694	      0.00000060	     -0.00000086	    230.68608997	     61.49189711	     47.44210987	    -20.77685331	      5.77065217	     93.92709532	   -230.68608997	    -61.49189711	    -47.44210987	      2.19665789	     -8.32704680	     -0.26789255	    107.40490033	    -35.12620285	    -14.80905724	      5.30438832	     -2.06313872	     43.39448149	   -107.40490033	     35.12620285	     14.80905724	      0.40930065	      1.89127112	     -1.54743887	   -474.00604252	    -48.83867536	     65.07501314	     -1.04058894	      7.56588816	     -1.77529386	    474.00604252	     48.83867536	    -65.07501314	     27.24647561	     -8.33214734	    192.08375408	    -39.65325172	    -16.05823608	    -12.05709119	      0.57468987	     -1.52605424	      0.14220745	     39.65325172	     16.05823608	     12.05709119	     -5.29439375	      0.97893089	     16.10859789	    243.40928352	    113.96916652	     44.44795569	    480.93835560
      0.48030764	      0.00516791	      0.00009457	     80.00011296	     77.90914137	     27.40492819	    600.28845875	    245.39729825	     14.35855743	      2.11033225	      0.00000000	      0.00000000	      0.00000000	      0.00000000	      0.00000000	      0.00000000	      0.00000001	      0.00000000	      0.03416498	      0.02657064	      0.03519426	      0.03179317	      0.06277977	      0.06075962	      0.05697345	      0.04905020	      0.04348795	      0.03802419	      0.01525851	      0.01651186	      0.06550154	      0.04489616	      0.10190051	      0.06033604	      0.13181938	      0.06375084	      0.04585889	      0.01615755	     -0.02987593	     -0.12374680	     -0.22782260	     -0.27355310	      0.00000079	     -0.32847694	      0.00000060	     -0.00000086	    229.60429152	     61.27018681	     47.47307645	    -20.78446461	      5.74670806	     93.48479695	   -229.60429152	    -61.27018681	    -47.47307645	      2.19061531	     -8.29737400	     -0.26338170	    106.76978595	    -35.27917161	    -14.76183324	      5.28292250	     -2.05168758	     43.14173336	   -106.76978595	     35.27917161	     14.76183324	      0.41119529	      1.88223671	     -1.55219534	   -469.62489042	    -48.29060918	     64.25268673	     -1.02803639	      7.49272996	     -1.75971954	    469.62489042	     48.29060918	    -64.25268673	     26.90291350	     -8.25673924	    190.30579395	    -38.42186621	    -15.57869931	    -11.71725613	      0.55775093	     -1.47978492	      0.13832239	     38.42186621	     15.57869931	     11.71725613	     -5.14460183	      0.94882607	     15.60828396	    242.33418963	    113.41216364	     43.08398503	    476.45349027
      0.48429090	      0.00516673	      0.00009623	     80.00011296	     77.10773120	     26.53178177	    599.05459818	    242.53253716	     12.28041767	      0.01178107	      0.00000000	      0.00000000	      0.00000000	      0.00000000	      0.00000000	      0.00000000	      0.00000001	      0.00000000	      0.03416300	      0.02656880	      0.03519329	      0.03179217	      0.06277719	      0.06075711	      0.05697105	      0.04904992	      0.04348771	      0.03802406	      0.01525851	      0.01651186	      0.06550154	      0.04489616	      0.10183670	      0.06026262	      0.13178804	      0.06371729	      0.04581588	      0.01611561	     -0.02991674	     -0.12375186	     -0.22782692	     -0.27355569	      0.00000079	     -0.32847694	      0.00000060	     -0.00000086	    231.94083850	     61.39733711	     47.20968929	    -20.67952293	      5.79539645	     94.44208404	   -231.94083850	    -61.39733711	    -47.20968929	      2.19130586	     -8.35100089	     -0.28599148	    108.12885242	    -35.12712791	    -14.73331471	      5.27369907	     -2.07469666	     43.68421890	   -108.12885242	     35.12712791	     14.73331471	      0.40992125	      1.89736397	     -1.54892600	   -477.38832646	    -49.29538372	     65.49534090	     -1.04915224	      7.61998290	     -1.78552204	    477.38832646	     49.29538372	    -65.49534090	     27.42462646	     -8.39054578	    193.45348091	    -39.38856396	    -15.92157521	    -11.94919126	      0.56966377	     -1.51449618	      0.13994094	     39.38856396	     15.92157521	     11.94919126	     -5.24713594	      0.97197844	     16.00145679	    244.53003973	    114.64220166	     44.13319272	    484.37515293
